<svg xmlns="http://www.w3.org/2000/svg" xmlns:xlink="http://www.w3.org/1999/xlink" viewBox="0,0,256,256" width="64px" height="64px" fill-rule="nonzero"><g fill="none" fill-rule="nonzero" stroke="none" stroke-width="1" stroke-linecap="butt" stroke-linejoin="miter" stroke-miterlimit="10" stroke-dasharray="" stroke-dashoffset="0" font-family="none" font-weight="none" font-size="none" text-anchor="none" style="mix-blend-mode: normal"><g transform="scale(4,4)"><path d="M17.724,18c-0.034,0 -0.069,-0.001 -0.104,-0.005c-0.549,-0.057 -0.949,-0.548 -0.892,-1.097c0.068,-0.663 0.161,-1.339 0.276,-2.01c0.698,-4.074 2.17,-7.781 4.146,-10.437c2.12,-2.85 4.597,-4.193 6.979,-3.787c3.429,0.588 5.781,4.666 6.137,10.643c0.033,0.551 -0.387,1.025 -0.938,1.058c-0.545,0.041 -1.024,-0.387 -1.058,-0.938c-0.29,-4.849 -2.089,-8.381 -4.479,-8.791c-1.581,-0.274 -3.414,0.826 -5.036,3.008c-1.791,2.408 -3.133,5.811 -3.779,9.581c-0.109,0.633 -0.194,1.259 -0.258,1.877c-0.053,0.515 -0.488,0.898 -0.994,0.898z" fill="#3b2d42"></path><path d="M24.492,15.739c-0.081,0 -0.163,-0.01 -0.245,-0.03c-0.536,-0.135 -0.86,-0.678 -0.726,-1.214c2.056,-8.164 6.418,-13.365 10.622,-12.644c2.415,0.414 4.279,2.699 5.247,6.435c0.139,0.535 -0.182,1.081 -0.717,1.219c-0.534,0.138 -1.08,-0.182 -1.219,-0.717c-0.749,-2.887 -2.079,-4.696 -3.649,-4.965c-2.956,-0.502 -6.64,4.392 -8.345,11.161c-0.114,0.453 -0.521,0.755 -0.968,0.755z" fill="#3b2d42"></path><path d="M57.631,56.087c0,0 -6.351,-42.98 -6.386,-43.289c-0.138,-0.309 -0.378,-0.447 -0.583,-0.516c-0.207,0 -4.703,-0.343 -4.703,-0.343c0,0 -3.123,-3.123 -3.501,-3.432c-0.139,-0.138 -0.311,-0.207 -0.447,-0.207l-0.003,0.07c-0.308,-0.057 -0.642,-0.011 -0.82,0.034c-0.034,0 -0.687,0.207 -1.751,0.549l-15.679,4.814l0.915,-0.284c-0.486,0.155 -0.953,0.296 -1.427,0.442l-5.608,1.722c-2.952,0.927 -5.047,1.544 -5.287,1.648c-1.648,0.514 -1.682,0.549 -1.888,2.094c-0.172,1.168 -4.463,34.363 -4.463,34.363l33.402,6.248l0.104,-0.022l-0.002,0.022z" fill="#008060"></path><path d="M39.504,60l18.126,-3.913c0,0 -6.351,-42.98 -6.386,-43.289c-0.138,-0.309 -0.378,-0.447 -0.583,-0.516c-0.207,0 -4.703,-0.343 -4.703,-0.343c0,0 -3.123,-3.123 -3.501,-3.432c-0.138,-0.138 -0.31,-0.207 -0.446,-0.207" fill="#06a57e"></path><path d="M32.975,22.837l-2.161,6.472c0,0 -1.959,-1.04 -4.288,-1.04c-3.478,0 -3.646,2.179 -3.646,2.716c0,2.95 7.766,4.09 7.766,11.03c0,5.465 -3.478,8.985 -8.172,8.985c-5.672,0 -8.509,-3.487 -8.509,-3.487l1.519,-4.962c0,0 2.971,2.548 5.47,2.548c1.654,0 2.329,-1.274 2.329,-2.212c0,-3.856 -6.348,-4.023 -6.348,-10.393c0,-5.331 3.85,-10.494 11.65,-10.494c2.903,-0.034 4.39,0.837 4.39,0.837z" fill="#ffffff"></path><path d="M22.474,52c-6.078,0 -9.156,-3.698 -9.284,-3.856c-0.21,-0.258 -0.278,-0.605 -0.18,-0.924l1.519,-4.961c0.099,-0.322 0.353,-0.573 0.677,-0.667c0.323,-0.092 0.673,-0.019 0.93,0.2c0.751,0.642 3.082,2.308 4.82,2.308c1.314,0 1.33,-1.163 1.33,-1.212c0,-1.153 -0.799,-1.854 -2.211,-2.994c-1.843,-1.488 -4.137,-3.339 -4.137,-7.399c0,-5.536 3.958,-11.494 12.65,-11.494c3.083,-0.012 4.718,0.87 4.894,0.974c0.408,0.239 0.593,0.731 0.443,1.18l-2.161,6.472c-0.093,0.279 -0.305,0.502 -0.578,0.612c-0.274,0.109 -0.58,0.092 -0.84,-0.045c-0.015,-0.008 -1.782,-0.923 -3.819,-0.923c-2.188,0 -2.646,0.933 -2.646,1.716c0,0.656 1.1,1.458 2.263,2.307c2.322,1.694 5.503,4.014 5.503,8.724c-0.001,5.876 -3.773,9.982 -9.173,9.982zM15.092,47.25c0.862,0.828 3.303,2.75 7.382,2.75c4.29,0 7.172,-3.209 7.172,-7.985c0,-3.693 -2.487,-5.507 -4.682,-7.108c-1.586,-1.157 -3.084,-2.25 -3.084,-3.922c0,-0.621 0.224,-3.716 4.646,-3.716c1.475,0 2.806,0.372 3.683,0.694l1.52,-4.552c-0.642,-0.201 -1.673,-0.415 -3.131,-0.41c-7.369,0 -10.662,4.768 -10.662,9.494c0,3.104 1.648,4.435 3.394,5.843c1.453,1.172 2.955,2.384 2.955,4.55c0,1.557 -1.167,3.212 -3.33,3.212c-1.801,0 -3.729,-1.078 -4.931,-1.895z" fill="#3b2d42"></path><path d="M42.011,8.3l-2.507,51.7" fill="#06a57e"></path><path d="M42.821,13.251c-0.017,0 -0.033,0 -0.049,-0.001l-1.998,-0.097c-0.551,-0.027 -0.977,-0.496 -0.95,-1.048c0.027,-0.551 0.503,-0.97 1.048,-0.95l1.998,0.097c0.551,0.027 0.977,0.496 0.95,1.047c-0.027,0.535 -0.469,0.952 -0.999,0.952z" fill="#3b2d42"></path><path d="M42.585,18.128c-0.017,0 -0.033,0 -0.049,-0.001l-1.998,-0.097c-0.552,-0.027 -0.977,-0.496 -0.951,-1.047c0.026,-0.552 0.499,-0.979 1.047,-0.951l1.998,0.097c0.552,0.027 0.977,0.496 0.951,1.047c-0.026,0.535 -0.468,0.952 -0.998,0.952z" fill="#3b2d42"></path><path d="M42.349,23.005c-0.017,0 -0.033,0 -0.049,-0.001l-1.998,-0.097c-0.552,-0.027 -0.977,-0.496 -0.951,-1.047c0.027,-0.552 0.494,-0.971 1.047,-0.951l1.998,0.097c0.552,0.027 0.977,0.496 0.951,1.047c-0.026,0.536 -0.469,0.952 -0.998,0.952z" fill="#3b2d42"></path><path d="M42.112,27.883c-0.017,0 -0.033,0 -0.049,-0.001l-1.998,-0.097c-0.552,-0.027 -0.978,-0.496 -0.951,-1.047c0.027,-0.552 0.505,-0.979 1.047,-0.951l1.998,0.097c0.552,0.027 0.978,0.496 0.951,1.047c-0.026,0.535 -0.468,0.952 -0.998,0.952z" fill="#3b2d42"></path><path d="M41.875,32.76c-0.017,0 -0.033,0 -0.049,-0.001l-1.998,-0.097c-0.552,-0.027 -0.977,-0.496 -0.951,-1.047c0.026,-0.551 0.5,-0.971 1.047,-0.951l1.998,0.097c0.552,0.027 0.977,0.496 0.951,1.047c-0.025,0.535 -0.468,0.952 -0.998,0.952z" fill="#3b2d42"></path><path d="M41.639,37.637c-0.017,0 -0.033,0 -0.049,-0.001l-1.998,-0.097c-0.552,-0.027 -0.977,-0.496 -0.951,-1.047c0.026,-0.552 0.496,-0.979 1.047,-0.951l1.998,0.097c0.552,0.027 0.977,0.496 0.951,1.047c-0.026,0.536 -0.468,0.952 -0.998,0.952z" fill="#3b2d42"></path><path d="M41.403,42.515c-0.017,0 -0.033,0 -0.049,-0.001l-1.998,-0.097c-0.552,-0.027 -0.977,-0.496 -0.951,-1.047c0.027,-0.552 0.491,-0.971 1.047,-0.951l1.998,0.097c0.552,0.027 0.977,0.496 0.951,1.047c-0.026,0.535 -0.468,0.952 -0.998,0.952z" fill="#3b2d42"></path><path d="M41.166,47.392c-0.017,0 -0.033,0 -0.049,-0.001l-1.998,-0.097c-0.551,-0.027 -0.977,-0.496 -0.95,-1.047c0.027,-0.552 0.503,-0.979 1.048,-0.951l1.998,0.097c0.551,0.027 0.977,0.496 0.95,1.048c-0.027,0.535 -0.469,0.951 -0.999,0.951z" fill="#3b2d42"></path><path d="M40.93,52.269c-0.017,0 -0.033,0 -0.049,-0.001l-1.998,-0.097c-0.552,-0.027 -0.977,-0.496 -0.951,-1.047c0.026,-0.551 0.499,-0.971 1.047,-0.951l1.998,0.097c0.552,0.027 0.977,0.496 0.951,1.047c-0.026,0.536 -0.469,0.952 -0.998,0.952z" fill="#3b2d42"></path><path d="M40.693,57.146c-0.017,0 -0.033,0 -0.049,-0.001l-1.998,-0.097c-0.552,-0.027 -0.977,-0.496 -0.951,-1.047c0.027,-0.552 0.494,-0.979 1.047,-0.951l1.998,0.097c0.552,0.027 0.977,0.496 0.951,1.047c-0.025,0.536 -0.468,0.952 -0.998,0.952z" fill="#3b2d42"></path><g fill="#3b2d42"><path d="M39.504,61c-0.033,0 -0.068,0 -0.103,0c-0.062,0 -0.123,-0.006 -0.184,-0.017l-33.401,-6.248c-0.521,-0.098 -0.875,-0.585 -0.808,-1.111c0.175,-1.355 4.294,-33.217 4.465,-34.379c0.255,-1.911 0.567,-2.272 2.544,-2.892c0.21,-0.081 0.686,-0.227 1.894,-0.598c0.896,-0.275 2.071,-0.635 3.427,-1.061l5.907,-1.813c0.063,-0.019 0.126,-0.039 0.189,-0.058c0.009,-0.003 0.018,-0.006 0.027,-0.009l0.915,-0.285c0.029,-0.009 0.059,-0.017 0.088,-0.023l14.68,-4.507c1.241,-0.4 1.646,-0.53 1.84,-0.573c0.132,-0.03 0.421,-0.1 0.752,-0.08c0.468,-0.155 1.033,0.064 1.425,0.451c0.289,0.231 2.395,2.327 3.243,3.174c1.674,0.127 4.053,0.305 4.276,0.312c0.097,0.003 0.208,0.021 0.3,0.052c0.544,0.183 0.952,0.548 1.178,1.057c0.042,0.093 0.068,0.192 0.08,0.294c0.083,0.633 6.319,42.83 6.382,43.256c0.077,0.521 -0.263,1.012 -0.778,1.124l-18.126,3.913c-0.07,0.014 -0.141,0.021 -0.212,0.021zM7.113,52.943l32.29,6.04c0.033,-0.003 0.066,-0.005 0.099,-0.005l17.003,-3.67c-1.24,-8.394 -5.68,-38.444 -6.204,-42.044c-0.802,-0.053 -2.753,-0.199 -4.418,-0.326c-0.238,-0.018 -0.462,-0.121 -0.631,-0.29c-1.372,-1.371 -2.899,-2.879 -3.333,-3.281c-0.031,-0.002 -0.062,-0.006 -0.094,-0.012c-0.124,-0.025 -0.305,-0.003 -0.395,0.02c-0.012,0.003 -0.023,0.005 -0.035,0.008c-0.167,0.046 -0.761,0.236 -1.651,0.523l-15.282,4.692c-0.211,0.066 -0.421,0.13 -0.631,0.194l-5.899,1.811c-1.354,0.425 -2.534,0.787 -3.434,1.063c-0.873,0.268 -1.625,0.499 -1.762,0.552c-0.483,0.155 -1.026,0.325 -1.135,0.416c-0.04,0.083 -0.104,0.567 -0.147,0.888c-0.154,1.047 -3.642,28.011 -4.341,33.421z"></path></g></g></g></svg>